<?xml version="1.0" encoding="utf-8"?>
<!-- Generator: Adobe Illustrator 26.0.1, SVG Export Plug-In . SVG Version: 6.00 Build 0)  -->
<svg version="1.1" id="Layer_1" xmlns="http://www.w3.org/2000/svg" xmlns:xlink="http://www.w3.org/1999/xlink" x="0px" y="0px"
	 viewBox="0 0 162.7 39" style="enable-background:new 0 0 162.7 39;" xml:space="preserve">
<style type="text/css">
	.st0{fill:#CFF23B;}
	.st1{fill:#FFFFFF;}
</style>
<path class="st0" d="M32.2,2.6H3.8c-1.5,0-2.7,1.2-2.7,2.7v28.2c0,1.5,1.2,2.7,2.7,2.7h28.3c1.5,0,2.7-1.2,2.7-2.7V5.3
	C34.9,3.8,33.7,2.6,32.2,2.6z M30.6,26.7c0,0.1,0,0.1-0.1,0.1l-1.7,0.9l0,0l-3.8,2.1L24,30.3L21,32l-0.2,0.1c0,0,0,0,0,0l-1.4,0.8
	l-1.2,0.6c0,0-0.1,0-0.2,0l-1.4-0.8l-1.1-0.6L15.2,32l-1.6-0.9L13.3,31l-2.4-1.3c-0.1,0-0.1-0.1-0.1-0.1V16.1c0-0.1,0-0.1,0.1-0.1
	l2.4-1.3l0.2-0.1l1.8-1l0.3-0.1l2.5-1.4c0.1,0,0.1,0,0.2,0l2.5,1.4l0.3,0.1l1,0.6l2.7,1.5c0.1,0,0.1,0.1,0.1,0.1v7.5
	c0,0.1,0,0.1-0.1,0.1l-0.3,0.2l-2.2,1.2l0,0l-0.2,0.1l-2.9,1.6l-1.7,0.9c-0.5,0.3-1.1-0.1-1.1-0.6v-7.4c0-0.7,0.6-1.2,1.4-1.2
	c0.4,0,0.7,0.1,1,0.4c0.2,0.2,0.4,0.5,0.4,0.9v4l2.9-1.6v-4.5l-3.9-2.1l-4.7,2.5V28l3,1.6l1.5,0.8l1.2-0.7l2.9-1.6l2.8-1.5l2.9-1.6
	V14.2l-2.9-1.6l-2.3-1.3l-4.7-2.6l-4.3,2.3l-2.8,1.5l-2.9,1.5v13.6c0,0.1-0.1,0.2-0.2,0.1l-2.4-1.3c-0.1,0-0.1-0.1-0.1-0.1V12.6
	c0-0.1,0-0.1,0.1-0.1l0.6-0.3l0,0L15,7.2l0.3-0.1l2.5-1.4c0.1,0,0.1,0,0.2,0l2.5,1.4l0.3,0.1l7,3.8l2.7,1.5c0.1,0,0.1,0.1,0.1,0.1
	V26.7z"/>
<g>
	<g>
		<g>
			<path class="st1" d="M56.7,9.9V6.7H46.3v3.2h2.2V8.7h1.7v7.7h-1.8v2h6.3v-2h-1.8V8.7h1.7v1.2H56.7z"/>
			<path class="st1" d="M68,16.3v-2.7c0-1.2-0.2-2.1-0.5-2.7c-0.4-0.7-1.2-1.1-2.3-1.1c-0.6,0-1.1,0.1-1.6,0.4
				c-0.3,0.1-0.6,0.3-1,0.6V6.3H59v2.1h1.2v7.9H59v2.1h4.7v-2.1h-1V13c0.7-0.7,1.4-1,2-1c0.6,0,0.9,0.5,0.9,1.5v4.9h3.6v-2.1H68z"/>
			<path class="st1" d="M77.3,16.3c-0.6,0.3-1.2,0.4-1.8,0.4c-0.4,0-0.8-0.1-1-0.2c-0.2-0.1-0.4-0.3-0.6-0.5
				c-0.2-0.2-0.3-0.5-0.4-0.9h6c0-0.7,0-1.2-0.1-1.6c-0.1-1.1-0.5-1.9-1.2-2.6c-0.7-0.7-1.7-1.1-2.9-1.1c-1.3,0-2.3,0.4-3.1,1.1
				c-0.8,0.8-1.2,2-1.2,3.4c0,1.4,0.4,2.5,1.2,3.3c0.8,0.8,1.8,1.2,3.2,1.2c0.9,0,1.8-0.2,2.6-0.5c0.4-0.1,0.8-0.4,1.3-0.7l-1.1-1.9
				C77.9,16,77.6,16.1,77.3,16.3z M75.2,11.8c1,0,1.6,0.5,1.8,1.4h-3.5C73.7,12.3,74.3,11.8,75.2,11.8z"/>
			<path class="st1" d="M96.3,9.8V6.7H85.8v3.2h2.2V8.7h1.7v7.7h-1.8v2h6.3v-2h-1.8V8.7H94v1.2H96.3z"/>
			<path class="st1" d="M106.1,16.2v-2.8c0-1-0.1-1.8-0.4-2.2c-0.5-1-1.6-1.4-3.4-1.4c-1.1,0-2.2,0.2-3.4,0.6l0.5,2
				c1-0.4,1.9-0.6,2.6-0.6c0.6,0,0.9,0.1,1.2,0.2c0.2,0.1,0.3,0.4,0.3,0.7V13c-1.3,0-2.2,0-2.7,0.1c-1.8,0.3-2.7,1.2-2.7,2.7
				c0,0.9,0.3,1.6,0.9,2.1c0.5,0.4,1.2,0.6,2.1,0.6c1.1,0,2-0.3,2.6-1v0.7h3.3v-2.1H106.1z M103.6,15.4c0,0.2,0,0.3,0,0.4
				c0,0.1-0.1,0.3-0.3,0.4c-0.3,0.3-0.9,0.4-1.5,0.4c-0.4,0-0.7,0-0.9-0.1c-0.2-0.1-0.3-0.3-0.3-0.6c0-0.5,0.4-0.8,1.1-0.9
				c0.4-0.1,1-0.1,1.8-0.1V15.4z"/>
			<path class="st1" d="M117.9,16.3l-2-2.2l2-2.1h1.1V9.9h-4.1v1.8h0.5l-0.8,1.1l-0.8-1.1h0.5V9.9H110v2.1h1.1l1.6,1.8l-2.1,2.4h-1
				v2.1h4v-2h-0.5l1-1.4l1,1.4h-0.5v2h4.5v-2.1H117.9z"/>
			<path class="st1" d="M148.1,16.2V9.8h-3.5V12h1.1v3.4c-0.7,0.6-1.3,0.9-1.9,0.9c-0.3,0-0.5-0.2-0.6-0.5c-0.1-0.2-0.1-0.5-0.1-0.9
				v-5h-3.6V12h1.1v2.8c0,1.2,0.1,2.1,0.4,2.7c0.4,0.7,1,1.1,2,1.1c0.5,0,1.1-0.1,1.5-0.3c0.3-0.1,0.6-0.3,1-0.6v0.8h3.6v-2.1H148.1
				z"/>
			<path class="st1" d="M156.3,10.1v2.1h1l-0.8,1.9c-0.2,0.5-0.4,1.1-0.6,1.6c-0.1-0.4-0.3-0.8-0.6-1.4l-1-2.1h0.9v-2.1h-4.3v2.1
				h0.7l3.2,6l-0.5,1c-0.1,0.2-0.2,0.4-0.3,0.5c-0.1,0.1-0.1,0.2-0.2,0.3c-0.2,0.2-0.5,0.3-0.9,0.3c-0.2,0-0.5,0-0.7-0.1v2.1
				c0.1,0,0.1,0,0.2,0h1.8c0.1,0,0.2-0.1,0.3-0.1c0.4-0.2,0.8-0.5,1.2-0.9c0.2-0.2,0.4-0.8,0.8-1.5c0.1-0.2,0.2-0.5,0.3-0.7l3.1-6.8
				h0.8v-2.1H156.3z"/>
			<path class="st1" d="M134.8,10.4l2.4,0.1V7.9h-2.1c0,0-1.8-2.3-5.1-0.6c-3.3,1.8-3.3,4.8-3.3,5.2c-0.1,0.5,0.4,3.7,2.2,4.9
				c1.8,1.2,4.1,2,6.7-0.6v1.7h2.2v-6.2h-5.4v2.1h2.2c0,0-1.4,2.8-4.1,1c0,0-1.6-1.5-1-3.8s2.1-2.6,3.4-2.6
				C134.3,9,134.8,10.4,134.8,10.4z"/>
		</g>
		<rect x="152.2" y="19.7" class="st1" width="5.7" height="2.6"/>
	</g>
</g>
<g>
	<g>
		<path class="st1" d="M48.9,33.2h-2.6l1.2-6.5H50c1.4,0,2.2,0.9,2.2,2.6C52.2,31.4,51.1,33.2,48.9,33.2z M49.7,27.2h-1.5l-1,5.4
			h1.6c1.6,0,2.5-1.5,2.5-3.3C51.4,27.9,50.8,27.2,49.7,27.2z"/>
		<path class="st1" d="M53.1,31.3c0-1.7,1.1-3,2.5-3c1.1,0,1.6,0.7,1.6,1.6c0,0.3,0,0.5-0.1,0.8H54c0,0.2,0,0.4,0,0.5
			c0,0.9,0.5,1.5,1.2,1.5c0.9,0,1.2-0.5,1.3-0.5c0.1,0,0.1,0,0.1,0.2l0.1,0.3c-0.4,0.4-0.9,0.6-1.7,0.6
			C53.9,33.2,53.1,32.4,53.1,31.3z M54,30.3h2.4c0-0.1,0-0.3,0-0.4c0-0.6-0.2-1.1-1-1.1C54.8,28.8,54.2,29.5,54,30.3z"/>
		<path class="st1" d="M58.2,33.2l1.3-7h0.7l-1.3,7H58.2z"/>
		<path class="st1" d="M60.7,33.2l0.9-4.8h0.7l-0.9,4.8H60.7z M61.8,26.9c0-0.3,0.2-0.5,0.5-0.5c0.3,0,0.4,0.1,0.4,0.3
			c0,0.3-0.2,0.5-0.5,0.5C61.9,27.2,61.8,27.1,61.8,26.9z"/>
		<path class="st1" d="M64.4,33.2l-0.9-4.8H64c0.1,0,0.2,0,0.2,0.2l0.7,3.9H65l2-3.9c0.1-0.2,0.1-0.2,0.3-0.2h0.7l-2.7,4.8H64.4z"/>
		<path class="st1" d="M68.4,31.3c0-1.7,1.1-3,2.5-3c1.1,0,1.6,0.7,1.6,1.6c0,0.3,0,0.5-0.1,0.8h-3.2c0,0.2,0,0.4,0,0.5
			c0,0.9,0.5,1.5,1.2,1.5c0.9,0,1.2-0.5,1.3-0.5c0.1,0,0.1,0,0.1,0.2l0.1,0.3c-0.4,0.4-0.9,0.6-1.7,0.6
			C69.1,33.2,68.4,32.4,68.4,31.3z M69.3,30.3h2.4c0-0.1,0-0.3,0-0.4c0-0.6-0.2-1.1-1-1.1C70.1,28.8,69.5,29.5,69.3,30.3z"/>
		<path class="st1" d="M73.5,33.2l0.9-4.8h0.4c0.1,0,0.2,0.1,0.2,0.2l0,0.7l0.1,0c0.5-0.8,0.9-1,1.4-1c0.2,0,0.3,0,0.4,0.1l-0.1,0.4
			c0,0.1-0.1,0.1-0.2,0.1h-0.2c-0.8,0-1.4,0.7-1.6,1.8l-0.5,2.4H73.5z"/>
		<path class="st1" d="M77.1,33.2l0.9-4.8h0.7l-0.9,4.8H77.1z M78.2,26.9c0-0.3,0.2-0.5,0.5-0.5c0.3,0,0.4,0.1,0.4,0.3
			c0,0.3-0.2,0.5-0.5,0.5C78.3,27.2,78.2,27.1,78.2,26.9z"/>
		<path class="st1" d="M82.6,33.2l0.5-2.9c0-0.2,0-0.3,0-0.5c0-0.6-0.2-1-0.9-1c-0.7,0-1.3,0.6-1.5,1.7l-0.5,2.6h-0.7l0.9-4.8h0.4
			c0.1,0,0.2,0.1,0.2,0.2l0,0.7l0.1,0c0.5-0.7,0.9-1,1.5-1c0.9,0,1.4,0.4,1.4,1.3c0,0.2,0,0.3,0,0.5l-0.6,3H82.6z"/>
		<path class="st1" d="M84.4,33.8c0-0.7,0.5-1.2,1.3-1.3l0-0.1c-0.4-0.1-0.5-0.3-0.5-0.6c0-0.4,0.3-0.7,0.8-0.8
			c-0.4-0.2-0.6-0.6-0.6-1c0-1,0.8-1.7,2-1.7H88c0.9,0,1.4-0.5,1.6-0.5c0.1,0,0.1,0,0.1,0.1l0.1,0.3c-0.3,0.3-1,0.4-1.4,0.4l0,0.1
			c0.4,0.1,0.6,0.4,0.6,0.8c0,1-0.8,1.7-2,1.7c-0.2,0-0.5,0-0.7-0.1c-0.3,0-0.6,0.1-0.6,0.4c0,0.3,0.3,0.5,1,0.5h0.6
			c1,0,1.5,0.3,1.5,0.9c0,1.1-1.2,2-2.8,2C85,35,84.4,34.6,84.4,33.8z M88.1,33.2c0-0.4-0.2-0.6-0.9-0.6h-0.6c-0.7,0-1.4,0.3-1.4,1
			c0,0.6,0.4,0.8,1,0.8C87.4,34.5,88.1,33.8,88.1,33.2z M88.4,29.6c0-0.6-0.4-0.9-0.9-0.9c-0.6,0-1.2,0.5-1.2,1.2
			c0,0.6,0.3,0.9,0.9,0.9C87.8,30.9,88.4,30.3,88.4,29.6z"/>
		<path class="st1" d="M96,30.5h-1.8l-0.5,2.7h-0.8l1.2-6.5h2.4c1.2,0,1.9,0.6,1.9,1.5C98.4,29.7,97.4,30.5,96,30.5z M96.2,27.1
			h-1.5l-0.5,2.8h1.6c1,0,1.7-0.6,1.7-1.7C97.6,27.6,97.1,27.1,96.2,27.1z"/>
		<path class="st1" d="M98.8,33.2l0.9-4.8h0.4c0.1,0,0.2,0.1,0.2,0.2l0,0.7l0.1,0c0.5-0.8,0.9-1,1.4-1c0.2,0,0.3,0,0.4,0.1l-0.1,0.4
			c0,0.1-0.1,0.1-0.2,0.1h-0.2c-0.8,0-1.4,0.7-1.6,1.8l-0.5,2.4H98.8z"/>
		<path class="st1" d="M102.4,31.3c0-1.8,1.1-3,2.6-3c1.1,0,1.9,0.8,1.9,1.9c0,1.8-1.1,3-2.6,3C103.2,33.2,102.4,32.5,102.4,31.3z
			 M106.1,30.3c0-0.9-0.4-1.5-1.2-1.5c-0.9,0-1.7,1-1.7,2.4c0,0.9,0.4,1.5,1.2,1.5C105.3,32.7,106.1,31.7,106.1,30.3z"/>
		<path class="st1" d="M113.3,33.2l0.5-2.9c0-0.2,0-0.4,0-0.5c0-0.5-0.2-0.9-0.7-0.9c-0.6,0-1.1,0.6-1.3,1.7l-0.5,2.6h-0.7l0.5-2.9
			c0-0.2,0-0.4,0-0.5c0-0.5-0.2-0.9-0.7-0.9c-0.6,0-1.1,0.6-1.3,1.7l-0.5,2.6h-0.7l0.9-4.8h0.4c0.1,0,0.2,0.1,0.2,0.2l0,0.7l0.1,0
			c0.4-0.7,0.8-1,1.3-1c0.7,0,1.1,0.4,1.2,1.1h0.1c0.4-0.7,0.8-1.1,1.4-1.1c0.8,0,1.2,0.5,1.2,1.3c0,0.2,0,0.4-0.1,0.5l-0.6,3H113.3
			z"/>
		<path class="st1" d="M115.7,33.2l0.9-4.8h0.7l-0.9,4.8H115.7z M116.8,26.9c0-0.3,0.2-0.5,0.5-0.5c0.3,0,0.4,0.1,0.4,0.3
			c0,0.3-0.2,0.5-0.5,0.5C117,27.2,116.8,27.1,116.8,26.9z"/>
		<path class="st1" d="M118,32.6l0.2-0.3c0-0.1,0.1-0.1,0.1-0.1c0.2,0,0.4,0.5,1.2,0.5c0.6,0,1-0.4,1-0.9c0-0.5-0.2-0.6-0.6-0.8
			l-0.4-0.1c-0.6-0.2-1-0.5-1-1.1c0-0.9,0.7-1.5,1.7-1.5c0.6,0,1.1,0.2,1.5,0.6l-0.2,0.3c0,0.1-0.1,0.1-0.2,0.1
			c-0.2,0-0.4-0.5-1.1-0.5c-0.5,0-1,0.4-1,0.9c0,0.5,0.2,0.6,0.6,0.8l0.4,0.1c0.6,0.2,1,0.5,1,1.1c0,0.8-0.5,1.5-1.8,1.5
			C118.9,33.2,118.4,33,118,32.6z"/>
		<path class="st1" d="M122.7,31.3c0-1.7,1.1-3,2.5-3c1.1,0,1.6,0.7,1.6,1.6c0,0.3,0,0.5-0.1,0.8h-3.2c0,0.2,0,0.4,0,0.5
			c0,0.9,0.5,1.5,1.2,1.5c0.9,0,1.2-0.5,1.3-0.5c0.1,0,0.1,0,0.1,0.2l0.1,0.3c-0.4,0.4-0.9,0.6-1.7,0.6
			C123.4,33.2,122.7,32.4,122.7,31.3z M123.6,30.3h2.4c0-0.1,0-0.3,0-0.4c0-0.6-0.2-1.1-1-1.1C124.4,28.8,123.7,29.5,123.6,30.3z"/>
		<path class="st1" d="M127.6,32.6l0.2-0.3c0-0.1,0.1-0.1,0.1-0.1c0.2,0,0.4,0.5,1.2,0.5c0.6,0,1-0.4,1-0.9c0-0.5-0.2-0.6-0.6-0.8
			l-0.4-0.1c-0.6-0.2-1-0.5-1-1.1c0-0.9,0.7-1.5,1.7-1.5c0.6,0,1.1,0.2,1.5,0.6l-0.2,0.3c0,0.1-0.1,0.1-0.2,0.1
			c-0.2,0-0.4-0.5-1.1-0.5c-0.5,0-1,0.4-1,0.9c0,0.5,0.2,0.6,0.6,0.8l0.4,0.1c0.6,0.2,1,0.5,1,1.1c0,0.8-0.5,1.5-1.8,1.5
			C128.5,33.2,128,33,127.6,32.6z"/>
		<path class="st1" d="M132,32.8c0-0.3,0.2-0.5,0.5-0.5c0.3,0,0.5,0.2,0.5,0.4c0,0.3-0.2,0.5-0.5,0.5C132.2,33.2,132,33,132,32.8z
			 M132.5,31.3l0.7-4.7h0.9l-1.1,4.7H132.5z"/>
	</g>
</g>
<rect x="40.7" y="1.3" transform="matrix(-1 -1.224647e-16 1.224647e-16 -1 82.0154 38.8436)" class="st1" width="0.6" height="36.2"/>
</svg>
